<?xml version="1.0" standalone="yes"?>

<svg version="1.1" viewBox="0.0 0.0 607.3700787401575 116.53280839895014" fill="none" stroke="none" stroke-linecap="square" stroke-miterlimit="10" xmlns="http://www.w3.org/2000/svg" xmlns:xlink="http://www.w3.org/1999/xlink"><clipPath id="p.0"><path d="m0 0l607.37006 0l0 116.53281l-607.37006 0l0 -116.53281z" clip-rule="nonzero"></path></clipPath><g clip-path="url(#p.0)"><path fill="#000000" fill-opacity="0.0" d="m0 0l607.37006 0l0 116.53281l-607.37006 0z" fill-rule="evenodd"></path><path fill="#000000" fill-opacity="0.0" d="m0 0l599.2126 0l0 110.74016l-599.2126 0z" fill-rule="evenodd"></path><path fill="#000000" d="m13.15625 70.44l0 -44.859375l9.40625 0l0 11.0l-0.4375 5.703125q1.78125 -1.609375 4.140625 -2.984375q2.375 -1.375 5.640625 -1.375q5.1875 0 7.515625 3.390625q2.34375 3.390625 2.34375 9.40625l0 19.71875l-9.40625 0l0 -18.5q0 -3.453125 -0.9375 -4.734375q-0.921875 -1.28125 -2.96875 -1.28125q-1.796875 0 -3.078125 0.8125q-1.265625 0.796875 -2.8125 2.265625l0 21.4375l-9.40625 0zm48.77832 0.765625q-2.953125 0 -5.03125 -0.890625q-2.078125 -0.90625 -3.390625 -2.5q-1.3125 -1.59375 -1.921875 -3.859375q-0.609375 -2.28125 -0.609375 -5.03125l0 -12.875l-4.34375 0l0 -6.96875l4.859375 -0.390625l1.09375 -8.4375l7.796875 0l0 8.4375l7.625 0l0 7.359375l-7.625 0l0 12.75q0 2.6875 1.125 3.875q1.125 1.171875 2.96875 1.171875q0.78125 0 1.578125 -0.1875q0.796875 -0.1875 1.4375 -0.453125l1.46875 6.84375q-1.28125 0.390625 -3.015625 0.765625q-1.71875 0.390625 -4.015625 0.390625zm24.511963 0q-2.953125 0 -5.03125 -0.890625q-2.078125 -0.90625 -3.390625 -2.5q-1.3125 -1.59375 -1.921875 -3.859375q-0.609375 -2.28125 -0.609375 -5.03125l0 -12.875l-4.34375 0l0 -6.96875l4.859375 -0.390625l1.09375 -8.4375l7.796875 0l0 8.4375l7.625 0l0 7.359375l-7.625 0l0 12.75q0 2.6875 1.125 3.875q1.125 1.171875 2.96875 1.171875q0.78125 0 1.578125 -0.1875q0.796875 -0.1875 1.4375 -0.453125l1.46875 6.84375q-1.28125 0.390625 -3.015625 0.765625q-1.71875 0.390625 -4.015625 0.390625zm12.277588 11.015625l0 -43.53125l7.6875 0l0.640625 3.140625l0.25 0q1.859375 -1.65625 4.1875 -2.78125q2.34375 -1.125 4.84375 -1.125q2.875 0 5.171875 1.15625q2.3125 1.15625 3.90625 3.265625q1.609375 2.109375 2.46875 5.09375q0.859375 2.96875 0.859375 6.609375q0 4.109375 -1.125 7.28125q-1.109375 3.15625 -3.0 5.375q-1.890625 2.203125 -4.296875 3.359375q-2.390625 1.140625 -4.953125 1.140625q-2.046875 0 -3.96875 -0.859375q-1.921875 -0.859375 -3.578125 -2.46875l0.3125 5.0625l0 9.28125l-9.40625 0zm14.46875 -18.6875q2.4375 0 4.15625 -2.203125q1.734375 -2.21875 1.734375 -7.140625q0 -8.578125 -5.5 -8.578125q-2.765625 0 -5.453125 2.875l0 13.0q1.28125 1.140625 2.5625 1.59375q1.28125 0.453125 2.5 0.453125zm27.640686 -13.328125q-2.421875 0 -4.0625 -1.6875q-1.625 -1.703125 -1.625 -4.203125q0 -2.5625 1.625 -4.25q1.640625 -1.703125 4.0625 -1.703125q2.4375 0 4.0625 1.703125q1.640625 1.6875 1.640625 4.25q0 2.5 -1.640625 4.203125q-1.625 1.6875 -4.0625 1.6875zm0 21.0q-2.421875 0 -4.0625 -1.6875q-1.625 -1.703125 -1.625 -4.203125q0 -2.5625 1.625 -4.25q1.640625 -1.703125 4.0625 -1.703125q2.4375 0 4.0625 1.703125q1.640625 1.6875 1.640625 4.25q0 2.5 -1.640625 4.203125q-1.625 1.6875 -4.0625 1.6875zm10.434341 9.46875l12.875 -55.671875l6.140625 0l-12.875 55.671875l-6.140625 0zm21.695969 0l12.875 -55.671875l6.140625 0l-12.875 55.671875l-6.140625 0zm36.35222 3.265625q-2.8125 0 -5.21875 -0.484375q-2.390625 -0.46875 -4.21875 -1.4375q-1.828125 -0.953125 -2.859375 -2.5q-1.015625 -1.53125 -1.015625 -3.640625q0 -3.84375 4.546875 -6.390625l0 -0.265625q-1.28125 -0.828125 -2.109375 -2.109375q-0.828125 -1.28125 -0.828125 -3.265625q0 -1.71875 1.015625 -3.28125q1.03125 -1.578125 2.5625 -2.671875l0 -0.25q-1.65625 -1.15625 -2.96875 -3.296875q-1.3125 -2.140625 -1.3125 -4.96875q0 -2.875 1.078125 -5.015625q1.09375 -2.140625 2.90625 -3.578125q1.828125 -1.453125 4.1875 -2.15625q2.375 -0.703125 4.9375 -0.703125q2.828125 0 4.9375 0.765625l11.578125 0l0 6.859375l-5.0625 0q0.453125 0.703125 0.734375 1.796875q0.296875 1.078125 0.296875 2.359375q0 2.75 -0.96875 4.765625q-0.953125 2.015625 -2.65625 3.328125q-1.6875 1.3125 -3.96875 1.953125q-2.265625 0.640625 -4.890625 0.640625q-1.84375 0 -3.828125 -0.640625q-0.640625 0.515625 -0.90625 1.03125q-0.25 0.5 -0.25 1.34375q0 1.203125 1.046875 1.78125q1.0625 0.578125 3.75 0.578125l5.125 0q5.890625 0 8.984375 1.890625q3.109375 1.890625 3.109375 6.171875q0 2.5 -1.25 4.578125q-1.25 2.078125 -3.5625 3.578125q-2.296875 1.515625 -5.5625 2.375q-3.265625 0.859375 -7.359375 0.859375zm0.703125 -29.25q1.859375 0 3.109375 -1.3125q1.25 -1.3125 1.25 -4.0q0 -2.484375 -1.25 -3.796875q-1.25 -1.3125 -3.109375 -1.3125q-1.84375 0 -3.09375 1.28125q-1.25 1.28125 -1.25 3.828125q0 2.6875 1.25 4.0q1.25 1.3125 3.09375 1.3125zm0.765625 23.359375q3.203125 0 5.25 -1.125q2.046875 -1.109375 2.046875 -2.765625q0 -1.484375 -1.25 -2.0q-1.234375 -0.5 -3.609375 -0.5l-3.265625 0q-1.65625 0 -2.6875 -0.09375q-1.015625 -0.09375 -1.796875 -0.296875q-1.71875 1.546875 -1.71875 3.140625q0 1.796875 1.921875 2.71875q1.921875 0.921875 5.109375 0.921875zm35.0197 -6.84375q-3.015625 0 -5.828125 -1.109375q-2.8125 -1.125 -4.96875 -3.234375q-2.140625 -2.125 -3.421875 -5.21875q-1.28125 -3.109375 -1.28125 -7.078125q0 -3.96875 1.28125 -7.0625q1.28125 -3.109375 3.421875 -5.21875q2.15625 -2.109375 4.96875 -3.234375q2.8125 -1.125 5.828125 -1.125q3.0 0 5.78125 1.125q2.796875 1.125 4.9375 3.234375q2.140625 2.109375 3.421875 5.21875q1.28125 3.09375 1.28125 7.0625q0 3.96875 -1.28125 7.078125q-1.28125 3.09375 -3.421875 5.21875q-2.140625 2.109375 -4.9375 3.234375q-2.78125 1.109375 -5.78125 1.109375zm0 -7.609375q2.875 0 4.34375 -2.4375q1.46875 -2.4375 1.46875 -6.59375q0 -4.15625 -1.46875 -6.578125q-1.46875 -2.4375 -4.34375 -2.4375q-2.953125 0 -4.390625 2.4375q-1.4375 2.421875 -1.4375 6.578125q0 4.15625 1.4375 6.59375q1.4375 2.4375 4.390625 2.4375zm35.519928 7.609375q-3.015625 0 -5.828125 -1.109375q-2.8125 -1.125 -4.96875 -3.234375q-2.140625 -2.125 -3.421875 -5.21875q-1.28125 -3.109375 -1.28125 -7.078125q0 -3.96875 1.28125 -7.0625q1.28125 -3.109375 3.421875 -5.21875q2.15625 -2.109375 4.96875 -3.234375q2.8125 -1.125 5.828125 -1.125q3.0 0 5.78125 1.125q2.796875 1.125 4.9375 3.234375q2.140625 2.109375 3.421875 5.21875q1.28125 3.09375 1.28125 7.0625q0 3.96875 -1.28125 7.078125q-1.28125 3.09375 -3.421875 5.21875q-2.140625 2.109375 -4.9375 3.234375q-2.78125 1.109375 -5.78125 1.109375zm0 -7.609375q2.875 0 4.34375 -2.4375q1.46875 -2.4375 1.46875 -6.59375q0 -4.15625 -1.46875 -6.578125q-1.46875 -2.4375 -4.34375 -2.4375q-2.953125 0 -4.390625 2.4375q-1.4375 2.421875 -1.4375 6.578125q0 4.15625 1.4375 6.59375q1.4375 2.4375 4.390625 2.4375zm27.316833 7.609375q-2.421875 0 -4.0625 -1.6875q-1.625 -1.703125 -1.625 -4.203125q0 -2.5625 1.625 -4.25q1.640625 -1.703125 4.0625 -1.703125q2.4375 0 4.0625 1.703125q1.640625 1.6875 1.640625 4.25q0 2.5 -1.640625 4.203125q-1.625 1.6875 -4.0625 1.6875zm25.090576 12.734375q-2.8125 0 -5.21875 -0.484375q-2.390625 -0.46875 -4.21875 -1.4375q-1.828125 -0.953125 -2.859375 -2.5q-1.015625 -1.53125 -1.015625 -3.640625q0 -3.84375 4.546875 -6.390625l0 -0.265625q-1.28125 -0.828125 -2.109375 -2.109375q-0.828125 -1.28125 -0.828125 -3.265625q0 -1.71875 1.015625 -3.28125q1.03125 -1.578125 2.5625 -2.671875l0 -0.25q-1.65625 -1.15625 -2.96875 -3.296875q-1.3125 -2.140625 -1.3125 -4.96875q0 -2.875 1.078125 -5.015625q1.09375 -2.140625 2.90625 -3.578125q1.828125 -1.453125 4.1875 -2.15625q2.375 -0.703125 4.9375 -0.703125q2.828125 0 4.9375 0.765625l11.578125 0l0 6.859375l-5.0625 0q0.453125 0.703125 0.734375 1.796875q0.296875 1.078125 0.296875 2.359375q0 2.75 -0.96875 4.765625q-0.953125 2.015625 -2.65625 3.328125q-1.6875 1.3125 -3.96875 1.953125q-2.265625 0.640625 -4.890625 0.640625q-1.84375 0 -3.828125 -0.640625q-0.640625 0.515625 -0.90625 1.03125q-0.25 0.5 -0.25 1.34375q0 1.203125 1.046875 1.78125q1.0625 0.578125 3.75 0.578125l5.125 0q5.890625 0 8.984375 1.890625q3.109375 1.890625 3.109375 6.171875q0 2.5 -1.25 4.578125q-1.25 2.078125 -3.5625 3.578125q-2.296875 1.515625 -5.5625 2.375q-3.265625 0.859375 -7.359375 0.859375zm0.703125 -29.25q1.859375 0 3.109375 -1.3125q1.25 -1.3125 1.25 -4.0q0 -2.484375 -1.25 -3.796875q-1.25 -1.3125 -3.109375 -1.3125q-1.84375 0 -3.09375 1.28125q-1.25 1.28125 -1.25 3.828125q0 2.6875 1.25 4.0q1.25 1.3125 3.09375 1.3125zm0.765625 23.359375q3.203125 0 5.25 -1.125q2.046875 -1.109375 2.046875 -2.765625q0 -1.484375 -1.25 -2.0q-1.234375 -0.5 -3.609375 -0.5l-3.265625 0q-1.65625 0 -2.6875 -0.09375q-1.015625 -0.09375 -1.796875 -0.296875q-1.71875 1.546875 -1.71875 3.140625q0 1.796875 1.921875 2.71875q1.921875 0.921875 5.109375 0.921875zm30.019714 -6.84375q-2.421875 0 -4.09375 -0.765625q-1.65625 -0.765625 -2.65625 -2.140625q-0.984375 -1.375 -1.4375 -3.328125q-0.453125 -1.953125 -0.453125 -4.390625l0 -35.0l9.40625 0l0 35.390625q0 1.46875 0.546875 2.046875q0.546875 0.578125 1.125 0.578125q0.3125 0 0.53125 0q0.234375 0 0.625 -0.125l1.140625 6.96875q-0.765625 0.3125 -1.953125 0.53125q-1.171875 0.234375 -2.78125 0.234375zm6.335205 9.46875l12.875 -55.671875l6.140625 0l-12.875 55.671875l-6.140625 0zm36.352234 3.265625q-2.8125 0 -5.21875 -0.484375q-2.390625 -0.46875 -4.21875 -1.4375q-1.828125 -0.953125 -2.859375 -2.5q-1.015625 -1.53125 -1.015625 -3.640625q0 -3.84375 4.546875 -6.390625l0 -0.265625q-1.28125 -0.828125 -2.109375 -2.109375q-0.828125 -1.28125 -0.828125 -3.265625q0 -1.71875 1.015625 -3.28125q1.03125 -1.578125 2.5625 -2.671875l0 -0.25q-1.65625 -1.15625 -2.96875 -3.296875q-1.3125 -2.140625 -1.3125 -4.96875q0 -2.875 1.078125 -5.015625q1.09375 -2.140625 2.90625 -3.578125q1.828125 -1.453125 4.1875 -2.15625q2.375 -0.703125 4.9375 -0.703125q2.828125 0 4.9375 0.765625l11.578125 0l0 6.859375l-5.0625 0q0.453125 0.703125 0.734375 1.796875q0.296875 1.078125 0.296875 2.359375q0 2.75 -0.96875 4.765625q-0.953125 2.015625 -2.65625 3.328125q-1.6875 1.3125 -3.96875 1.953125q-2.265625 0.640625 -4.890625 0.640625q-1.84375 0 -3.828125 -0.640625q-0.640625 0.515625 -0.90625 1.03125q-0.25 0.5 -0.25 1.34375q0 1.203125 1.046875 1.78125q1.0625 0.578125 3.75 0.578125l5.125 0q5.890625 0 8.984375 1.890625q3.109375 1.890625 3.109375 6.171875q0 2.5 -1.25 4.578125q-1.25 2.078125 -3.5625 3.578125q-2.296875 1.515625 -5.5625 2.375q-3.265625 0.859375 -7.359375 0.859375zm0.703125 -29.25q1.859375 0 3.109375 -1.3125q1.25 -1.3125 1.25 -4.0q0 -2.484375 -1.25 -3.796875q-1.25 -1.3125 -3.109375 -1.3125q-1.84375 0 -3.09375 1.28125q-1.25 1.28125 -1.25 3.828125q0 2.6875 1.25 4.0q1.25 1.3125 3.09375 1.3125zm0.765625 23.359375q3.203125 0 5.25 -1.125q2.046875 -1.109375 2.046875 -2.765625q0 -1.484375 -1.25 -2.0q-1.234375 -0.5 -3.609375 -0.5l-3.265625 0q-1.65625 0 -2.6875 -0.09375q-1.015625 -0.09375 -1.796875 -0.296875q-1.71875 1.546875 -1.71875 3.140625q0 1.796875 1.921875 2.71875q1.921875 0.921875 5.109375 0.921875zm21.37909 -7.609375l0 -31.75l7.6875 0l0.640625 5.578125l0.25 0q1.734375 -3.265625 4.15625 -4.796875q2.4375 -1.546875 4.875 -1.546875q1.34375 0 2.203125 0.171875q0.859375 0.15625 1.5625 0.46875l-1.53125 8.125q-0.890625 -0.25 -1.671875 -0.375q-0.765625 -0.125 -1.78125 -0.125q-1.796875 0 -3.75 1.28125q-1.953125 1.265625 -3.234375 4.53125l0 18.4375l-9.40625 0zm25.471954 0l0 -31.75l7.6875 0l0.640625 5.578125l0.25 0q1.734375 -3.265625 4.15625 -4.796875q2.4375 -1.546875 4.875 -1.546875q1.34375 0 2.203125 0.171875q0.859375 0.15625 1.5625 0.46875l-1.53125 8.125q-0.890625 -0.25 -1.671875 -0.375q-0.765625 -0.125 -1.78125 -0.125q-1.796875 0 -3.75 1.28125q-1.953125 1.265625 -3.234375 4.53125l0 18.4375l-9.40625 0zm22.01883 0l11.578125 -21.4375l-10.875 -20.296875l10.5 0l3.640625 7.875q0.703125 1.46875 1.40625 3.109375q0.703125 1.625 1.609375 3.609375l0.25 0q0.703125 -1.984375 1.375 -3.609375q0.671875 -1.640625 1.3125 -3.109375l3.328125 -7.875l10.046875 0l-10.8125 20.75l11.515625 20.984375l-10.484375 0l-4.171875 -8.515625q-0.765625 -1.65625 -1.5 -3.28125q-0.734375 -1.640625 -1.625 -3.5625l-0.265625 0q-0.703125 1.921875 -1.40625 3.5625q-0.703125 1.625 -1.40625 3.28125l-3.90625 8.515625l-10.109375 0zm57.475403 -6.90625q4.28125 0 6.78125 -3.71875q2.5 -3.71875 2.5 -10.4375q0 -6.265625 -2.5 -9.78125q-2.5 -3.53125 -6.78125 -3.53125q-4.296875 0 -6.796875 3.53125q-2.484375 3.515625 -2.484375 9.78125q0 6.71875 2.484375 10.4375q2.5 3.71875 6.796875 3.71875zm13.75 18.546875q-3.328125 0 -6.140625 -0.859375q-2.8125 -0.859375 -5.09375 -2.375q-2.265625 -1.5 -4.0 -3.578125q-1.71875 -2.078125 -2.8125 -4.515625q-3.328125 -0.703125 -6.046875 -2.453125q-2.71875 -1.765625 -4.640625 -4.515625q-1.921875 -2.75 -2.953125 -6.359375q-1.015625 -3.625 -1.015625 -8.046875q0 -5.109375 1.375 -9.109375q1.390625 -4.0 3.875 -6.71875q2.5 -2.71875 5.984375 -4.15625q3.484375 -1.453125 7.71875 -1.453125q4.21875 0 7.703125 1.453125q3.5 1.4375 5.984375 4.1875q2.5 2.75 3.875 6.75q1.375 4.0 1.375 9.046875q0 8.453125 -3.59375 13.890625q-3.578125 5.4375 -9.65625 7.171875q1.484375 2.234375 3.96875 3.15625q2.5 0.9375 5.1875 0.9375q1.34375 0 2.53125 -0.1875q1.1875 -0.1875 2.078125 -0.515625l1.671875 6.84375q-1.15625 0.578125 -3.046875 0.984375q-1.890625 0.421875 -4.328125 0.421875zm22.604065 -10.875q-4.8125 0 -8.046875 -1.84375q-3.21875 -1.859375 -5.390625 -5.703125l6.390625 -4.734375q1.15625 2.109375 2.6875 3.140625q1.53125 1.015625 3.140625 1.015625q2.5625 0 3.875 -1.5625q1.3125 -1.578125 1.3125 -5.734375l0 -27.078125l9.40625 0l0 27.84375q0 3.015625 -0.8125 5.703125q-0.796875 2.6875 -2.4375 4.671875q-1.625 1.984375 -4.15625 3.140625q-2.515625 1.140625 -5.96875 1.140625z" fill-rule="nonzero"></path></g></svg>

